<svg width="66" height="73" viewBox="0 0 66 73" fill="none" xmlns="http://www.w3.org/2000/svg">
<path d="M65.8824 21.4623C65.8819 20.2349 65.6189 19.1502 65.087 18.2193C64.5646 17.3039 63.7822 16.5367 62.7327 15.9301C54.07 10.9442 45.3989 5.97355 36.7389 0.982583C34.4042 -0.36281 32.1406 -0.313762 29.8232 1.05095C26.3752 3.08073 9.11211 12.9531 3.96793 15.9273C1.84941 17.1514 0.818537 19.0249 0.818028 21.4601C0.814718 31.487 0.818028 41.5136 0.814718 51.5408C0.814718 52.7413 1.06703 53.8049 1.57546 54.7218C2.09815 55.6649 2.89148 56.4532 3.96513 57.0736C9.10956 60.0477 26.3749 69.9194 29.8222 71.9497C32.1406 73.3151 34.4042 73.3639 36.7397 72.018C45.3999 67.0268 54.0715 62.0564 62.7355 57.0705C63.8092 56.4504 64.6025 55.6616 65.1252 54.7193C65.6329 53.8023 65.8857 52.7388 65.8857 51.538C65.8857 51.538 65.8857 31.4895 65.8824 21.4623Z" fill="#A179DC"/>
<path d="M33.4497 36.4027L1.57546 54.7218C2.09815 55.6649 2.89148 56.4532 3.96512 57.0736C9.10956 60.0477 26.3749 69.9194 29.8222 71.9497C32.1406 73.3151 34.4042 73.3639 36.7397 72.018C45.3999 67.0268 54.0715 62.0564 62.7355 57.0705C63.8092 56.4504 64.6025 55.6616 65.1252 54.7193L33.4497 36.4027Z" fill="#280068"/>
<path d="M65.8824 21.4623C65.8819 20.2348 65.6189 19.1501 65.087 18.2192L33.4498 36.4026L65.1252 54.7192C65.6329 53.8023 65.8852 52.7387 65.8857 51.5379C65.8857 51.5379 65.8857 31.4894 65.8824 21.4623Z" fill="#390091"/>
<path d="M52.2163 29.5544V32.9786H55.6467V29.5544H57.3619V32.9786H60.7923V34.6907H57.3619V38.1148H60.7923V39.8269H57.3619V43.251H55.6467V39.8269H52.2163V43.251H50.5012V39.8269H47.0708V38.1148H50.5012V34.6907H47.0708V32.9786H50.5012V29.5544H52.2163ZM55.6467 34.6907H52.2163V38.1148H55.6467V34.6907Z" fill="white"/>
<path d="M33.5197 12.3575C42.4673 12.3575 50.2792 17.208 54.4635 24.4178L54.4227 24.3484L43.8953 30.3989C41.8212 26.8935 38.0188 24.5279 33.6571 24.4792L33.5197 24.4784C26.8682 24.4784 21.4756 29.8608 21.4756 36.5003C21.4756 38.6715 22.0555 40.7068 23.0641 42.4647C25.1401 46.0824 29.0428 48.5224 33.5197 48.5224C38.0243 48.5224 41.9492 46.0514 44.0147 42.395L43.9645 42.4828L54.476 48.5612C50.3376 55.7099 42.6327 60.5454 33.7891 60.6418L33.5197 60.6433C24.5439 60.6433 16.7097 55.7629 12.536 48.515C10.4985 44.9767 9.33264 40.8746 9.33264 36.5003C9.33264 23.1668 20.1613 12.3575 33.5197 12.3575Z" fill="white"/>
</svg>
