<svg width="57" height="65" viewBox="0 0 57 65" fill="none" xmlns="http://www.w3.org/2000/svg">
<path d="M5.58466 58.3111L0.465179 0.888306H56.7215L51.5969 58.3025L28.5592 64.6893L5.58466 58.3111Z" fill="#1572B6"/>
<path d="M28.5938 59.8077L47.2096 54.6464L51.5892 5.58313H28.5938V59.8077Z" fill="#33A9DC"/>
<path d="M28.5938 26.3874H37.9132L38.5568 19.1757H28.5938V12.1329H46.2538L46.0848 14.0226L44.3535 33.4302H28.5938V26.3874Z" fill="white"/>
<path d="M28.6356 44.6778L28.6045 44.687L20.7613 42.5692L20.2598 36.9523H13.1911L14.1774 48.0105L28.6035 52.0144L28.6356 52.0052V44.6778Z" fill="#EBEBEB"/>
<path d="M37.3143 33.1323L36.466 42.5637L28.6111 44.684V52.0114L43.0489 48.0101L43.1548 46.8201L44.38 33.1323H37.3143Z" fill="white"/>
<path d="M28.6178 12.1329V19.1757H11.6065L11.4654 17.5931L11.1446 14.0226L10.9761 12.1329H28.6178ZM28.5938 26.3885V33.4312H20.8494L20.7084 31.8486L20.3871 28.2781L20.219 26.3885H28.5938Z" fill="#EBEBEB"/>
</svg>
