<svg width="66" height="66" viewBox="0 0 66 66" fill="none" xmlns="http://www.w3.org/2000/svg">
<path d="M13.9055 52.0767L2.76095 40.9321C1.43969 39.5726 0.616295 37.6577 0.616295 35.7859C0.616295 34.9194 1.10459 33.5647 1.4732 32.7844L11.7608 11.3522L13.9055 52.0767Z" fill="#01579B"/>
<path d="M52.0593 13.4968L40.9147 2.3523C39.9429 1.37571 37.9132 0.207642 36.1994 0.207642C34.7249 0.207642 33.2792 0.504447 32.3409 1.06455L11.7656 11.3522L52.0593 13.4968Z" fill="#40C4FF"/>
<path d="M27.1947 65.3659H54.2039V53.7905L34.0547 47.3613L15.6241 53.7905L27.1947 65.3659Z" fill="#40C4FF"/>
<path d="M11.7656 46.0783C11.7656 49.5155 12.1965 50.3628 13.9103 52.0814L15.6241 53.7952H54.2039L35.3425 32.3631L11.7656 11.3569V46.0783Z" fill="#29B6F6"/>
<path d="M46.0562 11.3522H11.7608L54.1992 53.7905H65.7745V27.2121L52.0593 13.4968C50.1348 11.5628 48.421 11.3522 46.0562 11.3522Z" fill="#01579B"/>
<path opacity="0.2" d="M14.3363 52.5075C12.6225 50.7841 12.1917 49.0895 12.1917 46.0783V11.783L11.7608 11.3522V46.0736C11.7656 49.0895 11.7656 49.9224 14.3363 52.5075L15.6241 53.7953L14.3363 52.5075Z" fill="white"/>
<path opacity="0.2" d="M65.3485 26.786V53.3644H53.7731L54.2039 53.7905H65.7793V27.2169L65.3485 26.786Z" fill="#263238"/>
<path opacity="0.2" d="M52.0593 13.4968C49.9338 11.3713 48.1912 11.3522 45.6301 11.3522H11.7656L12.1965 11.783H45.6349C46.9083 11.783 50.1396 11.5676 52.0593 13.4968Z" fill="white"/>
<path opacity="0.2" d="M65.3485 26.786L52.0593 13.4968L40.9148 2.3523C39.943 1.37571 37.9132 0.207642 36.1994 0.207642C34.725 0.207642 33.2792 0.504447 32.3409 1.06455L11.7657 11.3522L1.47802 32.7844C1.10941 33.5647 0.621117 34.9195 0.621117 35.7859C0.621117 37.6577 1.44451 39.5726 2.76577 40.9322L13.0391 51.1288C13.2832 51.4304 13.5704 51.7368 13.9151 52.0767L14.346 52.5075L15.6337 53.7953L26.7782 64.9398L27.2091 65.3707H53.7875H54.2183V53.7953H65.7937V53.7666V27.2169L65.3485 26.786Z" fill="url(#paint0_radial)"/>
<defs>
<radialGradient id="paint0_radial" cx="0" cy="0" r="1" gradientUnits="userSpaceOnUse" gradientTransform="translate(33.205 32.7874) scale(32.5839)">
<stop stop-color="white" stop-opacity="0.1"/>
<stop offset="1" stop-color="white" stop-opacity="0"/>
</radialGradient>
</defs>
</svg>
