<svg width="67" height="67" viewBox="0 0 67 67" fill="none" xmlns="http://www.w3.org/2000/svg">
<path d="M34.205 65.1774C52.2032 65.1774 66.7937 50.5869 66.7937 32.5887C66.7937 14.5905 52.2032 0 34.205 0C16.2068 0 1.61629 14.5905 1.61629 32.5887C1.61629 50.5869 16.2068 65.1774 34.205 65.1774Z" fill="#5C2D91"/>
<path opacity="0.1" d="M11.617 9.16553C8.30407 12.1177 5.62898 15.7153 3.75566 19.7378C1.88233 23.7604 0.850245 28.1232 0.722651 32.5587C0.595058 36.9942 1.37465 41.4091 3.01364 45.5327C4.65263 49.6563 7.11649 53.4018 10.2542 56.5395C13.3919 59.6772 17.1373 62.141 21.2609 63.78C25.3845 65.419 29.7994 66.1986 34.2349 66.071C38.6705 65.9434 43.0333 64.9113 47.0558 63.038C51.0784 61.1647 54.676 58.4896 57.6281 55.1767L11.617 9.16553Z" fill="white"/>
<path d="M9.15243 37.9352C8.96233 37.9382 8.77368 37.9018 8.59839 37.8282C8.4231 37.7545 8.26499 37.6454 8.13404 37.5075C7.99949 37.3746 7.89317 37.2159 7.82142 37.0409C7.74967 36.8659 7.71399 36.6782 7.71649 36.4891C7.71513 36.3002 7.75135 36.1128 7.82303 35.938C7.89471 35.7632 8.00043 35.6043 8.13404 35.4707C8.2637 35.3305 8.42134 35.2191 8.59677 35.1437C8.77219 35.0683 8.96149 35.0305 9.15243 35.0328C9.3431 35.0323 9.53183 35.071 9.70699 35.1463C9.88215 35.2216 10.04 35.332 10.1708 35.4707C10.3067 35.6031 10.4146 35.7615 10.4881 35.9365C10.5616 36.1114 10.5992 36.2994 10.5986 36.4891C10.6003 36.679 10.5633 36.8673 10.4898 37.0425C10.4162 37.2176 10.3077 37.3758 10.1708 37.5075C10.0388 37.6439 9.88045 37.7521 9.70541 37.8256C9.53038 37.8991 9.34227 37.9364 9.15243 37.9352Z" fill="white"/>
<path d="M29.388 37.6807H26.7198L17.1774 22.8732C16.9397 22.5084 16.7417 22.1192 16.5867 21.7123H16.5053C16.5959 22.5577 16.63 23.4083 16.6071 24.2583V37.6807H14.4379V19.1154H17.2589L26.5467 33.6581C26.9336 34.2623 27.1848 34.6765 27.3003 34.9005H27.3512C27.2437 33.9949 27.1995 33.0829 27.2188 32.1712V19.1154H29.388V37.6807Z" fill="white"/>
<path d="M44.0733 37.6807H34.205V19.1154H43.615V21.0809H36.4251V27.2523H43.1261V29.2077H36.4251V35.6439H44.0834L44.0733 37.6807Z" fill="white"/>
<path d="M58.6465 21.0809H53.249V37.6807H51.0798V21.0809H45.7434V19.1154H58.6465V21.0809Z" fill="white"/>
<path d="M28.2168 50.3088C27.4816 50.6649 26.6706 50.8361 25.8541 50.8078C25.3116 50.8322 24.7702 50.7404 24.2661 50.5384C23.762 50.3364 23.3069 50.0289 22.9313 49.6366C22.1831 48.799 21.7888 47.7038 21.8315 46.5814C21.8041 45.9737 21.899 45.3667 22.1107 44.7964C22.3224 44.2261 22.6465 43.7041 23.0637 43.2615C23.4704 42.8449 23.9592 42.5175 24.4992 42.3001C25.0392 42.0827 25.6186 41.98 26.2004 41.9987C26.8967 41.9749 27.5903 42.0962 28.2372 42.3551V43.3735C27.6144 43.0287 26.9122 42.8531 26.2004 42.8643C25.7517 42.8517 25.3055 42.9361 24.8925 43.1119C24.4794 43.2876 24.1092 43.5506 23.8072 43.8827C23.172 44.6063 22.8433 45.5485 22.8906 46.5102C22.8431 47.4211 23.1496 48.3151 23.7461 49.0052C24.0322 49.3129 24.3815 49.555 24.7699 49.715C25.1584 49.8749 25.5769 49.949 25.9967 49.932C26.7787 49.9524 27.5509 49.755 28.227 49.3617L28.2168 50.3088Z" fill="#F2F2F2"/>
<path d="M32.3821 50.8077C31.9767 50.8209 31.5732 50.7467 31.1989 50.5904C30.8247 50.434 30.4884 50.199 30.2129 49.9014C29.656 49.2799 29.3669 48.4638 29.4083 47.6303C29.3829 47.1937 29.4445 46.7564 29.5897 46.3438C29.7348 45.9312 29.9605 45.5515 30.2536 45.2269C30.5528 44.9349 30.9087 44.7075 31.2993 44.5586C31.69 44.4097 32.107 44.3425 32.5246 44.3613C32.9194 44.3403 33.314 44.4049 33.6814 44.5508C34.0488 44.6968 34.3803 44.9204 34.6531 45.2066C35.1944 45.8589 35.4674 46.6926 35.4169 47.5387C35.4596 48.3974 35.1634 49.2386 34.592 49.881C34.3113 50.1844 33.9687 50.4242 33.5875 50.584C33.2063 50.7439 32.7953 50.8202 32.3821 50.8077ZM32.4534 45.2371C32.1732 45.2253 31.894 45.2769 31.6366 45.388C31.3792 45.4991 31.1501 45.6668 30.9665 45.8787C30.5746 46.3833 30.3792 47.0129 30.4166 47.6507C30.381 48.2695 30.577 48.8794 30.9665 49.3616C31.152 49.5705 31.3817 49.7356 31.6388 49.8448C31.896 49.954 32.1742 50.0046 32.4534 49.993C32.7266 50.0092 33 49.9625 33.2524 49.8566C33.5049 49.7506 33.7297 49.5883 33.9097 49.382C34.2799 48.8761 34.4602 48.2559 34.4189 47.6303C34.4591 47.0017 34.2791 46.3787 33.9097 45.8685C33.7322 45.6579 33.5084 45.4913 33.2557 45.3817C33.003 45.2722 32.7284 45.2227 32.4534 45.2371Z" fill="#F2F2F2"/>
<path d="M40.1728 45.5427C39.9528 45.3986 39.6917 45.3306 39.4294 45.3492C39.2242 45.3567 39.024 45.4145 38.8464 45.5175C38.6689 45.6205 38.5193 45.7655 38.411 45.9399C38.1079 46.4198 37.9619 46.9822 37.9934 47.5489V50.6652H36.975V44.5549H37.9934V45.8279C38.1054 45.434 38.3281 45.0805 38.635 44.8095C38.9006 44.579 39.2406 44.4524 39.5923 44.453C39.7892 44.4442 39.986 44.4718 40.1728 44.5345V45.5427Z" fill="#F2F2F2"/>
<path d="M46.1406 47.8647H41.8328C41.8039 48.434 41.9892 48.9935 42.3522 49.433C42.5409 49.6213 42.7673 49.7676 43.0165 49.8624C43.2657 49.9572 43.5321 49.9982 43.7983 49.983C44.4886 49.9761 45.1563 49.7356 45.6925 49.3007V50.2172C45.0629 50.6322 44.3172 50.8356 43.5641 50.7977C43.184 50.8169 42.8045 50.752 42.4524 50.6076C42.1003 50.4633 41.7844 50.243 41.5273 49.9626C40.9971 49.3013 40.7321 48.4663 40.7838 47.6203C40.7472 46.7722 41.0349 45.942 41.5884 45.2984C41.8402 45.0074 42.1537 44.776 42.5059 44.621C42.8582 44.4661 43.2405 44.3913 43.6252 44.4022C43.9725 44.3827 44.3198 44.4422 44.6408 44.5763C44.9618 44.7104 45.2483 44.9154 45.4786 45.1761C45.9476 45.7945 46.1789 46.5606 46.1304 47.3351L46.1406 47.8647ZM45.1222 47.0398C45.1429 46.5679 44.9989 46.1035 44.7148 45.7261C44.5755 45.5686 44.4023 45.4447 44.2084 45.3636C44.0144 45.2825 43.8046 45.2462 43.5946 45.2576C43.3754 45.2549 43.1581 45.2979 42.9565 45.3838C42.7549 45.4697 42.5733 45.5967 42.4234 45.7566C42.0883 46.1112 41.8774 46.5651 41.8226 47.05L45.1222 47.0398Z" fill="#F2F2F2"/>
</svg>
