<svg width="66" height="66" viewBox="0 0 66 66" fill="none" xmlns="http://www.w3.org/2000/svg">
<path d="M56.1419 64H10.6807C6.02052 64 2.20764 60.1871 2.20764 55.527V10.0657C2.20764 5.40553 6.02052 1.59265 10.6807 1.59265H56.1419C60.8021 1.59265 64.615 5.40553 64.615 10.0657V55.527C64.615 60.1871 60.8021 64 56.1419 64Z" fill="#353535"/>
<path d="M26.8936 52.3496C30.4946 52.3496 33.4113 49.4329 33.4113 45.8318V39.3141H26.8936C23.2925 39.3141 20.3759 42.2308 20.3759 45.8318C20.3759 49.4329 23.2925 52.3496 26.8936 52.3496Z" fill="#0ACF83"/>
<path d="M20.3759 32.7964C20.3759 29.1954 23.2925 26.2787 26.8936 26.2787H33.4113V39.3142H26.8936C23.2925 39.3142 20.3759 36.3975 20.3759 32.7964Z" fill="#A259FF"/>
<path d="M20.3759 19.7609C20.3759 16.1599 23.2925 13.2432 26.8936 13.2432H33.4113V26.2786H26.8936C23.2925 26.2786 20.3759 23.362 20.3759 19.7609Z" fill="#F24E1E"/>
<path d="M33.4113 13.2432H39.9291C43.5301 13.2432 46.4468 16.1599 46.4468 19.7609C46.4468 23.362 43.5301 26.2786 39.9291 26.2786H33.4113V13.2432Z" fill="#FF7262"/>
<path d="M46.4468 32.7964C46.4468 36.3975 43.5301 39.3142 39.9291 39.3142C36.328 39.3142 33.4113 36.3975 33.4113 32.7964C33.4113 29.1954 36.328 26.2787 39.9291 26.2787C43.5301 26.2787 46.4468 29.1954 46.4468 32.7964Z" fill="#1ABCFE"/>
</svg>
