<svg width="54" height="66" viewBox="0 0 54 66" fill="none" xmlns="http://www.w3.org/2000/svg">
<g clip-path="url(#clip0)">
<path d="M10.9722 42.8303L0.935608 32.7937L33.5243 0.207642H53.5949L10.9722 42.8303ZM53.5949 30.278H33.5243L26.0061 37.7962L36.0427 47.8328" fill="#42A5F5" fill-opacity="0.8"/>
<path d="M26.0061 57.8669L33.5243 65.3852H53.595L36.0427 47.8329" fill="#0D47A1"/>
<path d="M15.9932 47.8381L26.014 37.8147L36.0348 47.8355L26.014 57.8589L15.9932 47.8381Z" fill="#42A5F5"/>
<path d="M26.014 57.8587L36.0348 47.838L37.4336 49.2368L27.4128 59.2575L26.014 57.8587Z" fill="url(#paint0_linear)"/>
<path d="M26.0061 57.8668L40.8977 52.7221L36.0427 47.8302" fill="url(#paint1_linear)"/>
</g>
<defs>
<linearGradient id="paint0_linear" x1="31.0263" y1="52.8465" x2="32.4252" y2="54.2454" gradientUnits="userSpaceOnUse">
<stop offset="0.2" stop-opacity="0.15"/>
<stop offset="0.85" stop-color="#616161" stop-opacity="0.01"/>
</linearGradient>
<linearGradient id="paint1_linear" x1="26.0096" y1="52.8488" x2="40.901" y2="52.8488" gradientUnits="userSpaceOnUse">
<stop offset="0.2" stop-opacity="0.55"/>
<stop offset="0.85" stop-color="#616161" stop-opacity="0.01"/>
</linearGradient>
<clipPath id="clip0">
<rect width="52.6593" height="65.1774" fill="white" transform="translate(0.935608 0.207642)"/>
</clipPath>
</defs>
</svg>
