<svg width="66" height="66" viewBox="0 0 66 66" fill="none" xmlns="http://www.w3.org/2000/svg">
<g clip-path="url(#clip0)">
<path d="M63.9824 29.8924L35.5253 1.4369C33.8875 -0.20195 31.2295 -0.20195 29.5896 1.4369L23.6803 7.34615L31.1765 14.8423C32.9185 14.2537 34.916 14.6486 36.3046 16.0371C37.6998 17.4346 38.0919 19.4493 37.489 21.1969L44.7133 28.4214C46.4611 27.8192 48.4778 28.2088 49.8738 29.607C51.8247 31.5573 51.8247 34.7181 49.8738 36.6696C47.9222 38.6214 44.7614 38.6214 42.8089 36.6696C41.3414 35.2006 40.9788 33.0454 41.7217 31.2375L34.9845 24.5003L34.9838 42.2298C35.4722 42.4713 35.9182 42.7903 36.3046 43.1744C38.2556 45.1246 38.2556 48.2857 36.3046 50.2387C34.3531 52.1895 31.1908 52.1895 29.2421 50.2387C27.2911 48.2857 27.2911 45.1249 29.2421 43.1746C29.7096 42.7068 30.2652 42.3364 30.8768 42.0847V24.1899C30.2643 23.9399 29.7084 23.5692 29.2421 23.1C27.7638 21.6238 27.4084 19.4549 28.1659 17.6399L20.7764 10.2496L1.26389 29.7608C-0.375725 31.4012 -0.375725 34.0595 1.26389 35.6986L29.7215 64.1546C31.3598 65.7937 34.0173 65.7937 35.6577 64.1546L63.9821 35.8307C65.6212 34.1911 65.6212 31.5313 63.9821 29.8924" fill="#DE4C36"/>
</g>
<defs>
<clipPath id="clip0">
<rect width="65.1774" height="65.1774" fill="white" transform="translate(0.0341797 0.207642)"/>
</clipPath>
</defs>
</svg>
