<svg width="58" height="66" viewBox="0 0 58 66" fill="none" xmlns="http://www.w3.org/2000/svg">
<path d="M5.51234 58.6314L0.29306 0.0736084H57.7052L52.4859 58.6314L28.9355 65.251" fill="#E34F26"/>
<path d="M29.0628 60.159L48.0304 54.9397L52.4859 4.78369H29.0628" fill="#EF652A"/>
<path d="M29.0628 26.5519H19.5153L18.8788 19.1686H29.0628V12.0398H28.9355H10.9862L11.1135 13.9493L12.8957 33.808H29.0628V26.5519ZM29.0628 45.265H28.9355L20.9156 43.1009L20.4064 37.3724H16.5874H13.2776L14.1687 48.7021L28.9355 52.7757H29.0628V45.265Z" fill="#EBEBEB"/>
<path d="M28.9355 26.5519V33.808H37.8464L36.9553 43.1009L28.9355 45.265V52.7757L43.7022 48.7021L43.8295 47.4291L45.4844 28.4614L45.739 26.5519H43.7022H28.9355ZM28.9355 12.0398V16.4953V19.1686H46.3755L46.5028 17.641L46.8847 13.9493L47.012 12.0398H28.9355Z" fill="white"/>
</svg>
