<svg width="66" height="66" viewBox="0 0 66 66" fill="none" xmlns="http://www.w3.org/2000/svg">
<path d="M66 0.0736084H0.822571V65.251H66V0.0736084Z" fill="#F7DF1E"/>
<path d="M44.6053 50.9936C45.9181 53.1373 47.6262 54.7129 50.6471 54.7129C53.1849 54.7129 54.806 53.4445 54.806 51.692C54.806 49.5918 53.1404 48.848 50.3471 47.6261L48.8159 46.9692C44.3963 45.0863 41.4602 42.7275 41.4602 37.7409C41.4602 33.1475 44.9601 29.6506 50.4298 29.6506C54.3239 29.6506 57.1234 31.0059 59.1408 34.5545L54.3715 37.6168C53.3214 35.7339 52.1886 34.9921 50.4298 34.9921C48.6359 34.9921 47.4989 36.1301 47.4989 37.6168C47.4989 39.4541 48.6369 40.198 51.2647 41.336L52.7959 41.9919C57.9997 44.2235 60.9379 46.4985 60.9379 51.6133C60.9379 57.1276 56.6062 60.1485 50.7888 60.1485C45.1008 60.1485 41.4261 57.4379 39.628 53.8852L44.6053 50.9936ZM22.9695 51.5244C23.9316 53.2314 24.8069 54.6746 26.9112 54.6746C28.9234 54.6746 30.1928 53.8873 30.1928 50.826V30.0003H36.3174V50.9088C36.3174 57.2507 32.5992 60.1371 27.1719 60.1371C22.2681 60.1371 19.4282 57.5993 17.9839 54.5427L22.9695 51.5244Z" fill="black"/>
</svg>
