<svg width="66" height="66" viewBox="0 0 66 66" fill="none" xmlns="http://www.w3.org/2000/svg">
<g clip-path="url(#clip0)">
<path d="M0 0.207642H65.1774V65.385H0V0.207642Z" fill="#222222"/>
<path d="M32.5383 38.2071C35.5485 38.2071 37.9887 35.7669 37.9887 32.7568C37.9887 29.7466 35.5485 27.3064 32.5383 27.3064C29.5281 27.3064 27.0879 29.7466 27.0879 32.7568C27.0879 35.7669 29.5281 38.2071 32.5383 38.2071Z" fill="#00D8FF"/>
<path d="M32.5383 21.6759C39.8547 21.6759 46.6523 22.726 51.7766 24.4893C57.9511 26.6147 61.748 29.837 61.748 32.7549C61.748 35.7953 57.7241 39.2194 51.094 41.415C46.0813 43.0757 39.4836 43.9439 32.5383 43.9439C25.4164 43.9439 18.6746 43.1297 13.6043 41.397C7.1903 39.205 3.32677 35.7377 3.32677 32.7549C3.32677 29.8605 6.95254 26.6634 13.0405 24.5416C18.1847 22.7494 25.1498 21.6759 32.5383 21.6759V21.6759Z" stroke="#00D8FF" stroke-width="3" stroke-miterlimit="10"/>
<path d="M22.893 27.2488C26.5475 20.9104 30.8542 15.5465 34.9428 11.9892C39.8691 7.70238 44.5575 6.02368 47.0846 7.48084C49.7179 8.99923 50.6743 14.1956 49.264 21.0383C48.1977 26.2113 45.6544 32.3587 42.1836 38.3765C38.6262 44.5455 34.552 49.9797 30.5191 53.5064C25.4164 57.9679 20.4812 59.5817 17.8983 58.0922C15.3911 56.6458 14.4328 51.9087 15.6342 45.574C16.6501 40.2173 19.2005 33.6484 22.893 27.2488V27.2488Z" stroke="#00D8FF" stroke-width="3" stroke-miterlimit="10"/>
<path d="M22.902 38.389C19.2366 32.0561 16.7401 25.6475 15.6991 20.3286C14.4454 13.92 15.3316 9.01897 17.8569 7.55821C20.4884 6.03441 25.4668 7.80137 30.6903 12.4394C34.6402 15.9463 38.6947 21.2202 42.1746 27.2325C45.7427 33.3961 48.4174 39.639 49.4567 44.8931C50.7734 51.543 49.7071 56.6241 47.126 58.1173C44.6206 59.5673 40.0384 58.0327 35.15 53.8269C31.0217 50.2732 26.6034 44.7832 22.902 38.389V38.389Z" stroke="#00D8FF" stroke-width="3" stroke-miterlimit="10"/>
</g>
<defs>
<clipPath id="clip0">
<rect y="0.207642" width="65.1774" height="65.1774" rx="10" fill="white"/>
</clipPath>
</defs>
</svg>
