<svg width="82" height="66" viewBox="0 0 82 66" fill="none" xmlns="http://www.w3.org/2000/svg">
<path d="M55.2588 20.8271L46.3558 23.7342L38.6104 27.1527L36.4435 27.7247C35.8917 28.2497 35.313 28.7813 34.6872 29.3197C34.0008 29.9118 33.3615 30.4502 32.8702 30.8404C32.3252 31.2712 31.5176 32.0786 31.1072 32.59C30.4948 33.3571 30.0103 34.1713 29.8017 34.7972C29.4315 35.9278 29.6133 37.0717 30.3266 38.1283C31.2418 39.4741 33.0654 40.8468 35.1918 41.7822C36.2753 42.2601 38.099 42.8724 39.4717 43.2155C41.7529 43.7943 46.1674 44.4201 48.5966 44.5144C49.0878 44.5346 49.7473 44.5346 49.7742 44.5144C49.8281 44.4807 50.2049 43.7607 50.6424 42.8658C52.1363 39.8173 53.213 36.9573 53.7984 34.5147C54.1483 33.0343 54.4242 31.0626 54.6058 28.7276C54.653 28.0748 54.6731 25.8878 54.6327 25.1475C54.5721 23.9363 54.4645 22.9538 54.2964 21.9915C54.2694 21.8502 54.2626 21.7223 54.2761 21.7156C54.303 21.6954 54.3837 21.6685 55.4806 21.3522L55.2586 20.8274V20.8272H55.2588V20.8271ZM53.2265 22.0183C53.3073 22.0183 53.5225 24.0842 53.5763 25.3897C53.5899 25.6656 53.583 25.8473 53.5696 25.8473C53.5159 25.8473 52.4324 25.2081 51.6586 24.7236C50.9856 24.2996 49.7071 23.4517 49.5053 23.2902C49.4378 23.2431 49.4445 23.2364 49.9964 23.0479C50.9317 22.7316 53.1525 22.0183 53.2265 22.0183ZM48.6909 23.5123C48.7515 23.5123 48.9062 23.5996 49.2763 23.8285C50.6625 24.6966 52.5468 25.7464 53.3543 26.0963C53.6033 26.204 53.6301 26.1636 53.0582 26.5539C51.8335 27.3883 50.3058 28.2093 48.4351 29.037C48.1054 29.185 47.8295 29.2994 47.8228 29.2994C47.8094 29.2994 47.8497 29.1313 47.9034 28.9293C48.3543 27.2536 48.6101 25.5579 48.6236 24.1986C48.6303 23.5256 48.6303 23.5256 48.6909 23.5055C48.6774 23.5123 48.6841 23.5123 48.6909 23.5123ZM47.7556 23.8689C47.7958 23.9092 47.769 25.4166 47.7151 25.8271C47.594 26.8096 47.4056 27.7247 47.0961 28.7544C47.0221 29.0032 46.9547 29.2119 46.9414 29.2254C46.9143 29.259 45.9924 28.3573 45.6896 28.0073C45.1647 27.4017 44.7543 26.796 44.4514 26.2039C44.2967 25.9011 44.0545 25.309 44.0746 25.2887C44.1822 25.2147 47.7286 23.842 47.7556 23.8689ZM43.3545 25.5983C43.3612 25.5983 43.3679 25.5983 43.3747 25.605C43.3882 25.6184 43.4353 25.7261 43.4757 25.8472C43.691 26.4327 44.1754 27.294 44.5928 27.8459C45.0503 28.4515 45.6493 29.0975 46.1472 29.5214C46.3087 29.656 46.4567 29.7838 46.4768 29.8041C46.5173 29.8445 46.5307 29.8377 45.4338 30.2549C44.1621 30.7394 42.7758 31.2239 41.1876 31.7353C40.8082 31.8576 40.4292 31.981 40.0505 32.1055C39.9899 32.1257 40.0101 32.092 40.1851 31.8162C40.9724 30.5846 42.1701 28.1689 42.8431 26.4596C42.9575 26.1635 43.0719 25.8675 43.0921 25.8002C43.1191 25.7059 43.1527 25.6723 43.2401 25.6251C43.2872 25.6118 43.3344 25.5983 43.3545 25.5983ZM42.0088 26.1568C42.0289 26.1703 41.6857 26.8903 41.3492 27.5498C40.6965 28.8216 39.9832 30.0733 39.0276 31.5941C38.8661 31.8565 38.7114 32.0988 38.6912 32.1257C38.6576 32.1729 38.644 32.1593 38.5364 31.9508C38.3076 31.4999 38.1191 30.9211 38.0182 30.3895C37.9172 29.8646 37.9374 28.9495 38.0519 28.3842C38.1393 27.967 38.1326 27.9738 38.3345 27.8728C39.1958 27.4354 41.9818 26.1299 42.0088 26.1568ZM53.6168 26.6279V26.9105C53.6168 28.4112 53.4553 30.4703 53.2197 31.971C53.1793 32.2334 53.1456 32.4487 53.1389 32.4555C53.1389 32.4555 52.9438 32.4017 52.715 32.3343C51.7057 32.018 50.6088 31.5537 49.6195 31.0087C48.9667 30.652 48.0179 30.0665 48.0449 30.0396C48.0515 30.0329 48.3342 29.8849 48.6639 29.7099C49.983 29.0235 51.248 28.2833 52.3449 27.5498C52.7554 27.2739 53.3744 26.8298 53.5091 26.7087L53.6168 26.6279ZM36.928 28.6197C36.9549 28.6197 36.9482 28.6735 36.9078 28.9158C36.8809 29.0908 36.8473 29.4138 36.8339 29.6357C36.7799 30.6183 36.9416 31.3451 37.426 32.341C37.5606 32.6169 37.6684 32.8457 37.6615 32.8523C37.6144 32.8928 33.1597 34.1983 31.7599 34.5818C31.3427 34.6962 30.9794 34.7972 30.9523 34.8038C30.9053 34.8173 30.8986 34.8106 30.9187 34.6961C31.0735 33.707 31.8272 32.415 32.8769 31.3248C33.5768 30.5981 34.1354 30.1741 35.0909 29.629C35.7773 29.2388 36.8338 28.6534 36.9146 28.6264C36.9146 28.6197 36.9213 28.6197 36.928 28.6197ZM47.4258 30.4971C47.4325 30.4904 47.594 30.578 47.7891 30.6923C49.2292 31.5268 51.2345 32.3007 52.9437 32.6977L53.0986 32.7314L52.8832 32.8523C51.9882 33.3504 49.0475 34.575 46.0396 35.6989C45.6021 35.8603 45.1715 36.0219 45.0906 36.0555C45.0099 36.0891 44.9358 36.1094 44.9358 36.1027C44.9358 36.0958 45.057 35.8603 45.2117 35.571C46.0528 33.9964 46.9008 32.0786 47.3315 30.7461C47.3854 30.6183 47.419 30.5039 47.4258 30.4971ZM46.3558 30.8471C46.3627 30.854 46.3088 30.9952 46.2414 31.1566C45.656 32.5765 44.8888 34.1243 43.9063 35.8605C43.6574 36.3046 43.4488 36.6613 43.4419 36.6613C43.4353 36.6613 43.2334 36.5401 42.9911 36.3921C41.5644 35.5173 40.2994 34.4406 39.4717 33.3975L39.3506 33.2495L39.9629 33.0812C42.1567 32.4824 44.0206 31.8364 45.8713 31.0424C46.1337 30.9346 46.3491 30.8471 46.3558 30.8471ZM53.0044 33.1687C53.0044 33.1687 53.0112 33.1754 53.0044 33.1687C53.0111 33.3235 52.6679 34.7098 52.3853 35.7123C52.1498 36.5535 51.9478 37.213 51.5778 38.3771C51.4163 38.8886 51.275 39.3125 51.2682 39.3125C51.2615 39.3125 51.2211 39.3058 51.1808 39.2924C49.1822 38.9289 47.3922 38.4242 45.7098 37.7513C45.2387 37.5629 44.5658 37.26 44.5254 37.2264C44.512 37.2128 44.9158 37.0245 45.4272 36.8024C48.4891 35.4633 51.6653 33.9425 52.7554 33.2898C52.8832 33.2091 52.9842 33.1687 53.0044 33.1687ZM37.6548 33.6936C37.6683 33.707 36.8137 34.9385 35.6158 36.6141C35.1986 37.1996 34.7141 37.8859 34.5325 38.1416C34.3507 38.3974 34.0749 38.8011 33.9201 39.0434L33.6373 39.4808L33.3345 39.2251C32.9778 38.9289 32.3588 38.2964 32.0829 37.9465C31.5041 37.2265 31.1139 36.4661 30.9591 35.7731C30.8851 35.45 30.8851 35.2884 30.9523 35.2683C31.0532 35.2414 32.85 34.8175 34.5324 34.4271C35.4678 34.2118 36.5511 33.9561 36.9414 33.8619C37.3318 33.7676 37.6481 33.6936 37.6548 33.6936ZM38.5162 34.0234L38.7314 34.2656C39.7006 35.349 40.6897 36.1499 41.8876 36.8496C42.103 36.9708 42.2644 37.0784 42.2509 37.0853C42.2039 37.1189 38.0922 38.579 36.1878 39.2385C35.1179 39.6153 34.2363 39.9181 34.2297 39.9181C34.2229 39.9181 34.1623 39.8778 34.0949 39.8307L33.9739 39.7432L34.169 39.4606C34.8015 38.5454 35.5957 37.5428 37.3251 35.4567L38.5162 34.0234ZM43.8862 37.8657C43.8928 37.8591 44.1889 37.9666 44.5523 38.1014C45.4272 38.431 46.1202 38.6396 47.049 38.8752C48.193 39.1646 49.8483 39.4472 50.8242 39.5279C50.9722 39.5413 51.0529 39.5548 51.026 39.5751C50.9788 39.602 49.9897 39.9317 49.2629 40.1605C48.1054 40.5238 44.5726 41.5669 41.6924 42.3946C41.1608 42.5494 40.7032 42.6772 40.6763 42.6839C40.6091 42.6974 40.3869 42.6368 40.3869 42.6099C40.3869 42.5965 40.5484 42.3879 40.7436 42.1591C41.7125 41.0016 42.6749 39.7096 43.4757 38.4849C43.6977 38.1483 43.8862 37.8725 43.8862 37.8657ZM42.7018 37.8995C42.7085 37.9062 42.2307 38.6732 41.3964 39.9922C41.0397 40.5507 40.6426 41.1832 40.5013 41.4053C40.3667 41.6207 40.1648 41.9572 40.0505 42.1456L39.8553 42.4888L39.7544 42.4619C39.512 42.3945 37.8096 41.7956 37.3587 41.6139C36.8001 41.3918 36.2214 41.1227 35.7907 40.8939C35.2524 40.6045 34.5795 40.1738 34.6333 40.1605C34.6467 40.1538 35.5687 39.9047 36.679 39.6019C39.6265 38.801 41.2616 38.3368 42.3317 38.0003C42.5269 37.9398 42.6951 37.8926 42.7018 37.8995ZM51.0798 39.8643H51.0865C51.1134 39.9317 50.0234 42.9598 49.6262 43.9153C49.5388 44.1307 49.5053 44.1846 49.4581 44.1777C49.3436 44.1711 47.7623 43.949 46.7999 43.8077C45.1244 43.552 42.3115 43.0607 41.605 42.8992L41.4435 42.8656L42.446 42.6367C44.5995 42.1522 45.6358 41.8898 46.6855 41.5668C48.0112 41.163 49.3235 40.6583 50.6491 40.0393C50.8577 39.945 51.0327 39.871 51.0798 39.8643Z" fill="url(#paint0_linear)"/>
<path d="M46.0799 0.0739531C45.9319 0.0538758 43.5429 0.915212 42.0019 1.54096C39.9225 2.38895 38.3076 3.19651 37.3116 3.89621C36.9416 4.15876 36.4772 4.62302 36.4032 4.80468C36.3763 4.87199 36.3628 4.95273 36.3628 5.03347L37.2646 5.88811L39.4112 6.57449L44.5187 7.48969L50.3597 8.49238L50.4203 7.98768C50.4002 7.98768 50.3866 7.98098 50.3666 7.98098L49.5993 7.8598L49.4446 7.58394C48.6505 6.18421 47.7757 4.44804 47.2643 3.27713C46.8673 2.36866 46.4905 1.31899 46.2818 0.565272C46.1674 0.107684 46.154 0.0807799 46.0801 0.0740771V0.0739218H46.0799V0.0739531ZM45.9721 0.417253H45.979C45.9857 0.423893 46.0126 0.61244 46.0396 0.834376C46.1538 1.77661 46.3626 2.68493 46.6923 3.66744C46.9412 4.40769 46.9412 4.36735 46.6519 4.27981C45.9655 4.09145 42.8903 3.55983 40.6629 3.25029C40.3062 3.20315 40.0034 3.15608 40.0034 3.14937C39.9765 3.12247 41.6116 2.26777 42.3317 1.93139C43.2536 1.50735 45.7838 0.45086 45.9721 0.417253ZM39.4851 3.43195L39.7477 3.51933C41.1742 4.00391 44.7608 4.69033 46.7393 4.85181C46.9613 4.87202 47.1499 4.89225 47.1565 4.89225C47.1632 4.89895 46.9749 4.9999 46.7325 5.11425C45.7771 5.59204 44.7273 6.1775 44.0005 6.62839C43.7852 6.76291 43.59 6.87065 43.5631 6.87065C43.5362 6.87065 43.3949 6.84372 43.2469 6.82351L42.9777 6.78308L42.3049 6.12357C41.1205 4.97293 40.1918 4.08469 39.8352 3.74815L39.4851 3.43195ZM39.216 3.64051L40.1649 4.82491C40.683 5.47765 41.2079 6.1169 41.3224 6.25815C41.4366 6.39956 41.5309 6.51401 41.5242 6.52071C41.4973 6.54088 40.1515 6.27839 39.4381 6.11696C38.7046 5.94868 38.4018 5.86793 37.951 5.72668L37.5808 5.6055V5.51123C37.5875 5.06035 38.1596 4.38746 39.1286 3.70114L39.216 3.64051ZM47.2777 5.25556C47.3047 5.25556 47.3382 5.31611 47.419 5.49779C47.6477 6.00246 48.3612 7.36185 48.536 7.62425C48.59 7.71182 48.684 7.71852 47.7353 7.56374C45.4541 7.19353 44.7206 7.07254 44.7206 7.05907C44.7206 7.05237 44.7879 7.00523 44.8753 6.9581C45.582 6.56788 46.2952 6.06986 46.9278 5.53823C47.0826 5.41035 47.2239 5.28923 47.2508 5.269C47.2575 5.25556 47.271 5.24886 47.2777 5.25556Z" fill="url(#paint1_linear)"/>
<path d="M36.4501 4.71045C36.4501 4.71045 36.3022 4.94607 36.4434 5.29601C36.531 5.51127 36.7867 5.77368 37.076 6.0429C37.076 6.0429 40.0705 8.96339 40.4339 9.38066C42.0893 11.2917 42.8093 13.176 42.8766 15.7735C42.917 17.4424 42.6006 18.9093 41.8134 20.6119C40.4137 23.667 37.4595 27.0384 32.9038 30.7799L33.5701 30.5578C34.0007 30.2347 34.5862 29.8917 35.9589 29.1379C39.1284 27.4017 42.6949 25.8069 47.069 24.1649C53.3675 21.7961 63.724 19.0236 69.6187 18.122L70.2312 18.0277L70.1369 17.8797C69.5987 17.0452 69.2284 16.5271 68.7843 15.9753C67.4923 14.3737 65.9245 13.075 64.0066 11.9983C61.3687 10.5247 57.9568 9.37396 53.6367 8.51933C52.8225 8.35775 51.0325 8.04824 49.579 7.82618C46.4969 7.34852 44.505 7.01871 42.3113 6.64187C41.5241 6.50723 40.3463 6.3054 39.5658 6.13721C39.162 6.04964 38.3882 5.86798 37.7826 5.65939C37.2981 5.47087 36.5982 5.28245 36.4501 4.71045ZM38.1864 6.39284C38.193 6.3862 38.3007 6.42645 38.4421 6.47359C38.6978 6.56097 39.0275 6.66195 39.4179 6.76969C39.7132 6.85093 40.0093 6.92943 40.3061 7.00519C40.7099 7.10607 41.0463 7.20031 41.053 7.20031C41.1002 7.24745 41.7799 9.42085 42.0087 10.2553C42.096 10.5717 42.1634 10.8408 42.1567 10.8408C42.1498 10.8476 42.0759 10.7331 41.9884 10.5784C41.2011 9.19212 39.9562 7.78572 38.5161 6.65515C38.3277 6.52069 38.1864 6.39955 38.1864 6.39284ZM41.4972 7.30802C41.5308 7.30802 41.6789 7.32822 41.8605 7.36856C43.0045 7.62426 45.057 8.01457 46.3691 8.23666C46.5912 8.27027 46.7662 8.31073 46.7662 8.32411C46.7662 8.33764 46.6854 8.38465 46.5844 8.43855C46.3625 8.5529 45.4674 9.08447 45.1714 9.28639C44.4244 9.78435 43.7515 10.3227 43.267 10.8072C43.0718 11.0024 42.9035 11.1638 42.9035 11.1638C42.9035 11.1638 42.8633 11.0495 42.8295 10.9081C42.5874 9.97271 42.0826 8.58645 41.625 7.61076C41.551 7.45604 41.4903 7.31469 41.4903 7.30129C41.4903 7.31472 41.4903 7.30802 41.4972 7.30802ZM47.3247 8.41835C47.3651 8.43176 47.4324 8.66058 47.5669 9.16524C47.816 10.1411 47.9304 11.2312 47.89 12.2473C47.8765 12.5299 47.8631 12.7923 47.8495 12.8261L47.8294 12.8933L47.4795 12.7789C46.7594 12.5501 45.5886 12.2069 44.586 11.9243C44.0139 11.7695 43.5497 11.6282 43.5497 11.6148C43.5497 11.5743 44.3841 10.7399 44.7408 10.4237C45.4203 9.82469 47.2641 8.39812 47.3247 8.41835ZM47.789 8.48557C47.8093 8.46549 50.575 8.94315 51.8334 9.18545C52.7688 9.3671 54.1281 9.64977 54.2088 9.68347C54.2492 9.69687 54.1078 9.77762 53.6569 9.97948C51.8804 10.7803 50.5614 11.5003 49.2494 12.3752C48.9061 12.604 48.6168 12.7923 48.61 12.7923C48.6033 12.7923 48.5966 12.5972 48.5966 12.3617C48.5966 11.0832 48.3409 9.79112 47.8697 8.70098C47.8227 8.59331 47.7823 8.49239 47.789 8.48557ZM54.9422 9.89879C54.9625 9.91896 54.8749 10.4641 54.7942 10.787C54.552 11.7897 53.8992 13.277 53.0985 14.6766C52.9571 14.9256 52.8293 15.1275 52.8157 15.1342C52.8024 15.1409 52.6207 15.0399 52.412 14.9188C51.6315 14.4612 50.7432 14.0306 49.7742 13.6267C49.5051 13.5124 49.2695 13.4181 49.2628 13.4048C49.2156 13.3643 51.3825 11.931 52.5265 11.2446C53.4349 10.6929 54.9153 9.87183 54.9422 9.89879ZM55.4536 9.97951C55.5142 9.97951 56.739 10.316 57.3782 10.5044C58.9596 10.9755 60.7765 11.6417 61.9608 12.18L62.452 12.4022L62.1089 12.4828C59.2154 13.149 56.739 13.9162 54.35 14.8852C54.1549 14.966 53.9799 15.0333 53.9666 15.0333C53.9531 15.0333 54.0204 14.8785 54.1078 14.69C54.8279 13.1625 55.2922 11.5677 55.4065 10.2083C55.4134 10.0804 55.4334 9.97951 55.4536 9.97951ZM43.2602 12.7789C43.2804 12.7587 44.2158 12.9808 44.7205 13.122C45.4876 13.3374 47.116 13.8824 47.116 13.9229C47.116 13.9296 46.9344 14.0844 46.7192 14.2728C45.8376 15.0063 44.9897 15.7801 43.9735 16.7626C43.6706 17.0521 43.415 17.2876 43.4016 17.2876C43.3881 17.2876 43.3815 17.2471 43.3881 17.1933C43.5428 16.0627 43.5093 14.6093 43.2939 13.1355C43.2737 12.9471 43.2535 12.7856 43.2602 12.7789ZM62.9165 12.7992C62.9298 12.8125 62.4858 13.5124 62.2032 13.9094C61.7995 14.4881 61.2071 15.2554 59.868 16.9377C59.1616 17.8258 58.3674 18.8286 58.105 19.165C57.8358 19.5015 57.6138 19.784 57.607 19.784C57.6003 19.784 57.5129 19.663 57.4186 19.515C56.6649 18.3844 55.7631 17.3952 54.6932 16.5069C54.4913 16.3387 54.2694 16.157 54.1953 16.1031C54.1213 16.0493 54.0607 15.9955 54.0607 15.9888C54.0607 15.9686 55.2045 15.4773 56.0728 15.1274C57.5936 14.5083 59.666 13.7681 61.2206 13.2903C62.0349 13.0346 62.903 12.7856 62.9165 12.7992ZM63.4346 12.9337C63.4615 12.927 63.623 13.0077 63.8182 13.122C65.4534 14.0574 67.0549 15.262 68.3201 16.5002C68.6767 16.8502 69.5583 17.7654 69.5447 17.7721C69.5447 17.7721 69.2352 17.799 68.8719 17.8258C66.0389 18.0413 62.4118 18.6401 58.926 19.4812C58.6905 19.535 58.482 19.5821 58.4684 19.5821C58.4551 19.5821 58.7174 19.3197 59.0472 19.0035C61.0929 17.0318 62.0283 15.7869 63.1318 13.5662C63.2866 13.2365 63.4212 12.9539 63.4346 12.9337C63.4279 12.9337 63.4279 12.9337 63.4346 12.9337ZM48.4485 14.468C48.5427 14.4881 49.4175 14.8987 50.077 15.2284C50.6826 15.5311 51.5911 16.0157 51.6382 16.056C51.6449 16.0627 51.3218 16.231 50.925 16.4262C49.6598 17.0587 48.5764 17.6576 47.4458 18.344C47.1228 18.5392 46.8537 18.7007 46.847 18.7007C46.82 18.7007 46.8267 18.6737 47.0085 18.344C47.6141 17.2405 48.0986 15.9215 48.3746 14.6362C48.4014 14.5352 48.4283 14.468 48.4485 14.468ZM47.5736 14.6295C47.5939 14.6497 47.3651 15.4773 47.2238 15.9282C46.9478 16.7828 46.4835 17.8528 46.0327 18.6603C45.9249 18.8486 45.7635 19.1246 45.676 19.2793L45.5078 19.5485L45.131 19.1852C44.6936 18.7612 44.3369 18.4988 43.8794 18.2632C43.6976 18.1691 43.5563 18.0882 43.5563 18.0749C43.5563 18.021 44.707 16.978 45.5886 16.2243C46.2211 15.6792 47.5535 14.6093 47.5736 14.6295ZM52.9236 16.83L53.2533 17.0452C54.0068 17.5366 54.8951 18.1892 55.5749 18.7612C55.9583 19.0774 56.6985 19.7437 56.8467 19.9052L56.9273 19.9928L56.3824 20.1475C53.3003 21.0021 50.9182 21.7625 48.1389 22.7854C47.8294 22.8997 47.5669 22.994 47.5467 22.994C47.5065 22.994 47.4727 23.0276 48.1659 22.3883C49.9425 20.7532 51.517 18.9496 52.688 17.1933L52.9236 16.83ZM51.5171 17.1799C51.5305 17.1933 50.6086 18.492 50.0568 19.2255C49.3973 20.1004 48.2264 21.5673 47.4189 22.5228C47.0825 22.9199 46.7932 23.2496 46.7797 23.2564C46.7594 23.2631 46.7527 23.1622 46.7527 23.0074C46.7527 22.1931 46.5442 21.325 46.1807 20.5848C46.0259 20.2753 45.999 20.2013 46.0328 20.1677C46.1606 20.0532 48.1188 18.9361 49.3569 18.27C50.1914 17.8259 51.4967 17.1664 51.5171 17.1799ZM43.0112 19.266C43.0314 19.266 43.1862 19.3467 43.3612 19.4409C43.7918 19.6764 44.1754 19.9389 44.5186 20.2216C44.532 20.235 44.3571 20.3763 44.1283 20.5445C43.489 21.0021 42.52 21.7356 41.9549 22.1865C41.3625 22.6575 41.3425 22.671 41.4097 22.5701C41.8539 21.8904 42.0758 21.5068 42.3115 21.0156C42.52 20.5783 42.7286 20.0601 42.8766 19.6092C42.9304 19.414 42.9978 19.266 43.0112 19.266ZM45.2791 21.0425C45.3126 21.0358 45.3531 21.0963 45.5347 21.3655C45.9183 21.9374 46.2144 22.7046 46.2885 23.3237L46.3018 23.4584L45.38 23.815C43.7312 24.4543 42.2105 25.0869 41.1808 25.5578C40.8915 25.6925 40.3868 25.9347 40.0571 26.0963C39.7274 26.2644 39.4582 26.3923 39.4582 26.3856C39.4582 26.3789 39.6668 26.2241 39.9225 26.0356C41.9347 24.5754 43.6775 22.9738 44.9829 21.3723C45.1243 21.204 45.2522 21.0492 45.2655 21.0425L45.2791 21.0425ZM44.236 21.2982C44.263 21.3251 43.4958 22.1932 42.9709 22.7248C41.6722 24.0505 40.3869 25.0869 38.792 26.0963C38.5901 26.2241 38.4085 26.3384 38.3882 26.352C38.3411 26.3789 38.4016 26.3115 39.1015 25.5511C39.5457 25.0733 39.8821 24.6696 40.2657 24.1717C40.5214 23.842 40.5685 23.7949 40.9387 23.5323C41.9279 22.819 44.2091 21.2712 44.236 21.2982Z" fill="url(#paint2_radial)"/>
<path d="M15.0961 49.1623C14.972 49.1623 14.8478 49.1741 14.7247 49.1741C12.2174 49.3077 10.5264 50.4111 9.5376 52.566C8.69196 54.5149 8.78429 57.0623 9.54709 59.0231C10.4341 60.9391 11.8675 61.9502 14.2599 62.3322C14.7661 62.4151 15.1056 62.693 16.086 63.8377L17.2923 65.251H19.4802L18.0254 63.7844C17.2212 62.9803 16.5708 62.2801 16.5708 62.2186C16.5708 62.1571 16.8784 62.0223 17.2508 61.9088C18.4784 61.5373 19.4979 60.5889 20.211 59.1354C20.7881 57.9682 20.871 57.6074 20.9537 56.1552C21.1702 51.8326 18.8911 49.1301 15.096 49.161L15.0961 49.1623ZM17.0143 60.4661C15.9499 60.9816 14.4043 61.0845 13.3955 60.7144C12.3523 60.3313 11.3424 59.248 10.8882 58.0215C10.3832 56.6804 10.4553 54.2064 11.0325 53.0922C11.9608 51.3182 13.1885 50.5022 14.9825 50.5022C17.6435 50.5022 19.1573 52.132 19.3548 55.195C19.5109 57.752 18.6547 59.6702 17.0155 60.465L17.0143 60.4661ZM54.8096 52.8545C53.8918 52.8545 53.1893 53.2259 52.7162 53.9578L52.3448 54.5374V53.0307H50.7566V62.0662H52.3438V59.1781C52.3438 56.5373 52.3767 56.2286 52.7458 55.5059C53.2544 54.5149 54.1294 54.0207 54.9752 54.2572L55.5428 54.4228V52.8569H54.8096V52.8545ZM45.4785 52.7717C45.1673 52.7717 44.8373 52.8131 44.5087 52.8853C42.3834 53.441 41.1854 55.4752 41.2587 57.5685C41.2587 59.3213 41.5992 60.1975 42.445 61.1165C44.1776 62.538 45.7445 62.6515 47.8591 61.8888C48.2198 61.7351 48.6125 61.5577 48.6125 61.5577V60.1362L47.8591 60.5265C46.1478 61.2715 44.8587 61.2715 43.8262 60.3939C43.1676 59.7233 42.8777 58.9192 42.7442 58.0015H49.1482V56.7832C49.1482 54.2997 47.6533 52.7315 45.4771 52.7717H45.4785ZM42.8884 56.7336C42.8884 56.7336 43.125 55.1844 44.0025 54.5764C44.4248 54.2783 44.9096 54.1342 45.3838 54.1342C45.8593 54.1342 46.3335 54.2878 46.7249 54.5871C47.5293 55.2056 47.664 56.7219 47.664 56.7219H42.8885V56.7336H42.8884ZM4.59762 55.104C2.87574 54.0608 2.11173 53.3086 2.20515 52.4216C2.47238 49.9676 5.50478 50.307 7.18408 51.2355L7.19602 49.5845C7.19602 49.5845 6.26759 49.1824 4.93706 49.1611C2.8958 49.1304 1.57596 49.7997 0.957518 51.1621C0.0491555 53.1726 0.853462 54.6887 3.76048 56.38C5.39249 57.3296 6.11385 58.154 6.11385 59.0528C6.11385 60.9096 3.87512 61.5577 1.56544 60.3927C1.0901 60.1562 0.687943 59.9587 0.666674 59.9587C0.583833 60.485 0.626535 61.7445 0.626535 61.7445C0.626535 61.7445 1.33617 62.0426 2.40045 62.2482C5.04002 62.7745 7.44209 61.5363 7.66912 59.5258C7.86666 57.6383 7.18413 56.6483 4.59773 55.1026L4.59762 55.104ZM68.8665 52.7504C68.5567 52.7504 68.2279 52.793 67.8849 52.8651C65.7621 53.421 64.5663 55.4552 64.6479 57.5485C64.6479 59.2989 64.9874 60.1669 65.8329 61.0846C67.5656 62.5074 69.1326 62.622 71.2579 61.8581C71.6174 61.7045 72.0088 61.5295 72.0088 61.5295V60.1056L71.2567 60.4981C69.5419 61.2408 68.2527 61.2408 67.2239 60.3633C66.5616 59.694 66.2742 58.8992 66.1405 57.9708H72.534V56.7526C72.534 54.281 71.039 52.7115 68.8629 52.753L68.8665 52.7504ZM66.2765 56.7123C66.2765 56.7123 66.5154 55.1654 67.3917 54.5456C67.8128 54.2465 68.2976 54.1021 68.7719 54.1021C69.2449 54.1021 69.7216 54.2559 70.1131 54.5563C70.9173 55.1748 71.0522 56.7016 71.0522 56.7016H66.2778L66.2765 56.7123ZM37.1643 55.124C35.4425 54.0833 34.6807 53.3287 34.773 52.4417C35.0402 49.9864 38.0727 50.3271 39.752 51.2555L39.7639 49.6046C39.7639 49.6046 38.8355 49.2024 37.5049 49.1835C35.4637 49.1528 34.1438 49.8221 33.5242 51.1845C32.6171 53.195 33.432 54.7112 36.3294 56.4024C37.9592 57.351 38.6806 58.1646 38.6806 59.0634C38.6806 60.9202 36.443 61.579 34.1333 60.4033C33.6602 60.1668 33.2582 59.9716 33.2345 59.9716C33.1516 60.4978 33.1943 61.7575 33.1943 61.7575C33.1943 61.7575 33.8956 62.0449 34.9564 62.2612C37.5985 62.7887 40.0016 61.5516 40.2276 59.5411C40.4239 57.663 39.7427 56.6732 37.1644 55.1262V55.124H37.1643ZM78.1989 52.8332C77.2811 52.8332 76.5704 53.2057 76.1056 53.9378L75.7341 54.5149V53.0106H74.1459V62.0437H75.733V59.1558C75.733 56.516 75.7648 56.2062 76.1352 55.4848C76.6437 54.4949 77.5187 53.9994 78.3644 54.2371L78.932 54.4026V52.8333H78.1989V52.8332ZM24.5337 55.072V49.3171H22.9324V62.0638H29.6665V60.5584H24.5337V55.072H24.5337ZM61.5649 56.866L60.245 60.3005L58.9759 56.8471L57.6869 53.0201H56.0478C57.1099 56.0312 58.2651 59.0942 59.4301 62.0638C59.9351 62.0756 60.4413 62.0638 60.9462 62.0638L62.7286 57.5887L64.5439 53.0212H62.977C62.977 53.0212 62.285 54.8354 61.5637 56.8672L61.5649 56.866ZM28.2235 45.8436C28.4813 45.8436 28.6965 45.761 28.874 45.5836C29.0489 45.4084 29.1412 45.2027 29.1412 44.9449C29.1412 44.687 29.0489 44.4718 28.874 44.3062C28.6965 44.1407 28.4919 44.0578 28.2353 44.0578C27.9752 44.0578 27.7599 44.1407 27.5848 44.3156C27.4075 44.4907 27.327 44.706 27.327 44.9544C27.327 45.2146 27.4099 45.4297 27.5848 45.593C27.7504 45.7585 27.9657 45.8413 28.2235 45.8413V45.8436ZM27.6559 44.3772C27.8096 44.2235 27.9965 44.1525 28.2353 44.1525C28.4601 44.1525 28.647 44.2235 28.8031 44.3772C28.9569 44.5309 29.0396 44.7178 29.0396 44.9449C29.0396 45.1719 28.9569 45.3683 28.8031 45.522C28.647 45.6756 28.4601 45.749 28.2353 45.749C28.0071 45.749 27.8214 45.6781 27.6677 45.522C27.514 45.3683 27.4312 45.1719 27.4312 44.9449C27.4312 44.7178 27.5021 44.531 27.6559 44.3772ZM28.0378 45.0277H28.1419C28.2153 45.0277 28.2874 45.0986 28.3488 45.2335L28.4731 45.5125H28.6682L28.5145 45.2026C28.4518 45.0785 28.3904 45.0063 28.3182 44.9861C28.4092 44.9648 28.4813 44.9341 28.5334 44.8726C28.5853 44.8194 28.6043 44.7472 28.6043 44.6656C28.6043 44.571 28.5748 44.5001 28.5122 44.448C28.4412 44.3889 28.3276 44.357 28.1809 44.357H27.8523V45.5125H28.0178V45.0276L28.0378 45.0277ZM28.0378 44.4907H28.1822C28.2862 44.4907 28.3596 44.512 28.3998 44.5427C28.4388 44.5735 28.4494 44.6138 28.4494 44.687C28.4494 44.8206 28.3665 44.8834 28.2129 44.8834H28.0356V44.4907H28.0378ZM1.58654 44.9247C1.58654 44.5226 1.57476 44.2235 1.56527 44.0473H1.57476C1.6161 44.2553 1.66699 44.4103 1.70838 44.5132L3.24577 47.9476H3.50362L5.041 44.4825C5.08251 44.3879 5.1239 44.2459 5.17473 44.0484H5.18651C5.1558 44.3914 5.14517 44.6894 5.14517 44.9271V47.9583H5.67134V43.4524H5.01144L3.59824 46.5864C3.54615 46.7105 3.474 46.8963 3.38178 47.1423H3.3604C3.3297 47.0204 3.25755 46.8347 3.15469 46.6076L1.77328 43.4416H1.07204V47.9475H1.5782V44.927L1.58654 44.9247ZM6.82452 44.9331H7.27875V47.7395H6.82452V44.9331ZM7.05161 43.9041C7.14628 43.9041 7.22667 43.8721 7.28813 43.8096C7.35085 43.748 7.3923 43.6676 7.3923 43.5731C7.3923 43.4808 7.36148 43.3979 7.28939 43.3365C7.22552 43.2738 7.14388 43.2418 7.05046 43.2418C6.95829 43.2418 6.87551 43.2738 6.81388 43.3365C6.75138 43.3979 6.70988 43.4808 6.70988 43.5731C6.70988 43.676 6.74184 43.748 6.81388 43.8096C6.885 43.8721 6.95824 43.9041 7.05046 43.9041H7.05161ZM10.5169 47.8011V47.3066C10.2684 47.4923 10.0012 47.5847 9.72445 47.5847C9.39341 47.5847 9.12482 47.4712 8.92848 47.2536C8.73341 47.0384 8.62935 46.739 8.62935 46.3665C8.62935 45.9763 8.73341 45.6663 8.94861 45.4298C9.15557 45.2027 9.42411 45.0892 9.75291 45.0892C10.0213 45.0892 10.279 45.1721 10.5169 45.3377V44.8114C10.3005 44.6979 10.0534 44.6458 9.77418 44.6458C9.25849 44.6458 8.8565 44.8114 8.55611 45.1308C8.25801 45.4501 8.10427 45.8842 8.10427 46.4081C8.10427 46.874 8.23789 47.2655 8.51591 47.5648C8.80561 47.8722 9.17592 48.0283 9.62999 48.0283C9.9811 48.0186 10.2684 47.9453 10.5169 47.8011ZM11.8165 46.305C11.8165 45.9348 11.8993 45.6356 12.0531 45.4297C12.1974 45.2441 12.3724 45.1507 12.5793 45.1507C12.7544 45.1507 12.8785 45.1826 12.9695 45.2548V44.7178C12.8986 44.6871 12.7957 44.6764 12.6621 44.6764C12.4764 44.6764 12.311 44.7389 12.1655 44.8539C12.0117 44.9755 11.8887 45.1613 11.8166 45.3979H11.8048V44.7391H11.2904V47.9559H11.8059V46.305H11.8165ZM14.7767 48.0198C15.2617 48.0198 15.6519 47.8636 15.9416 47.5539C16.2301 47.2462 16.3744 46.8324 16.3744 46.3166C16.3744 45.7905 16.2421 45.3884 15.9724 45.089C15.7052 44.79 15.3337 44.6455 14.8488 44.6455C14.3638 44.6455 13.9736 44.7899 13.6839 45.0689C13.374 45.3766 13.2108 45.8106 13.2108 46.3676C13.2108 46.8525 13.3433 47.2547 13.6225 47.5539C13.911 47.8636 14.293 48.0186 14.7767 48.0186V48.0198ZM14.0435 45.399C14.2398 45.192 14.4977 45.0891 14.8169 45.0891C15.1482 45.0891 15.3965 45.192 15.581 45.399C15.7666 45.6155 15.8589 45.9242 15.8589 46.3369C15.8589 46.7294 15.7761 47.0382 15.601 47.2451C15.4261 47.4616 15.1682 47.5762 14.8276 47.5762C14.4965 47.5762 14.2398 47.4615 14.0435 47.2451C13.8484 47.0275 13.7549 46.7294 13.7549 46.3369C13.7349 45.9466 13.8378 45.6273 14.0435 45.399ZM18.6322 47.7395C18.8285 47.5645 18.9327 47.3493 18.9327 47.0795C18.9327 46.843 18.8498 46.6467 18.6961 46.4918C18.5707 46.3677 18.3769 46.2552 18.0965 46.1417C17.8481 46.0377 17.6944 45.9454 17.6115 45.8732C17.5288 45.7905 17.4779 45.6877 17.4779 45.5421C17.4779 45.4085 17.53 45.3056 17.6318 45.2228C17.7358 45.1401 17.8683 45.0999 18.0457 45.0999C18.3236 45.0999 18.5613 45.1732 18.7788 45.3282V44.8125C18.5707 44.7085 18.3448 44.6588 18.087 44.6588C17.7559 44.6588 17.4768 44.75 17.2709 44.926C17.0544 45.1012 16.9516 45.3282 16.9516 45.5954C16.9516 45.8319 17.0225 46.0283 17.1573 46.1725C17.2708 46.2955 17.4649 46.421 17.7345 46.5332C17.9924 46.6468 18.1674 46.7496 18.2607 46.8323C18.353 46.9152 18.3944 47.018 18.3944 47.14C18.3944 47.4403 18.1886 47.5953 17.7865 47.5953C17.4766 47.5953 17.1988 47.4935 16.9503 47.2878V47.8435C17.175 47.9785 17.4447 48.0399 17.7427 48.0399C18.1247 48.0198 18.4239 47.9264 18.6297 47.7407L18.6322 47.7395ZM21.0874 44.6456C20.6024 44.6456 20.2122 44.79 19.9225 45.0691C19.615 45.3767 19.4494 45.8107 19.4494 46.3677C19.4494 46.8526 19.5831 47.2548 19.861 47.554C20.1508 47.8637 20.5315 48.0187 21.0165 48.0187C21.5131 48.0187 21.8917 47.8626 22.1814 47.5527C22.4711 47.2452 22.6154 46.8313 22.6154 46.3156C22.6154 45.7893 22.4806 45.3873 22.2132 45.088C21.9343 44.7888 21.5628 44.6445 21.0897 44.6445L21.0874 44.6456ZM22.0879 46.3369C22.0879 46.7295 22.0051 47.0382 21.8301 47.2452C21.655 47.4616 21.3972 47.5763 21.0566 47.5763C20.7253 47.5763 20.4688 47.4615 20.2724 47.2452C20.0773 47.0276 19.9839 46.7295 19.9839 46.3369C19.9839 45.923 20.0868 45.6037 20.2938 45.3884C20.4888 45.1826 20.7468 45.0785 21.0673 45.0785C21.3865 45.0785 21.6432 45.1825 21.8288 45.3884C21.9944 45.6154 22.0867 45.9241 22.0867 46.3369H22.0879ZM23.4812 47.9465H23.9956V45.1614H24.7489V44.7285H23.9955V44.2318C23.9955 43.7801 24.1705 43.553 24.5325 43.553C24.6543 43.553 24.7785 43.5837 24.8707 43.6358V43.1711C24.7785 43.1297 24.6543 43.1202 24.4992 43.1202C24.2214 43.1202 23.9943 43.2031 23.8086 43.378C23.5921 43.5838 23.4775 43.8511 23.4775 44.2131V44.7406H22.9333V45.1734H23.4775V47.948L23.4812 47.9465ZM25.5944 47.0689C25.5944 47.6982 25.8725 48.0186 26.4401 48.0186C26.6459 48.0186 26.8008 47.9856 26.925 47.9122V47.4699C26.8304 47.5409 26.718 47.5741 26.5939 47.5741C26.4189 47.5741 26.2959 47.5325 26.2237 47.4391C26.1503 47.347 26.109 47.1908 26.109 46.9755V45.1602H26.9249V44.7273H26.109V43.7789C25.9316 43.8403 25.7578 43.8924 25.5933 43.9443V44.7272H25.0375V45.1601H25.5933V47.0678L25.5944 47.0689ZM80.9426 52.9987C80.7676 52.8332 80.5606 52.7504 80.304 52.7504C80.0439 52.7504 79.8285 52.8332 79.6535 53.0106C79.4785 53.1844 79.3956 53.4008 79.3956 53.6493C79.3956 53.9071 79.4785 54.1224 79.6522 54.2878C79.8273 54.4534 80.0425 54.5363 80.3027 54.5363C80.5593 54.5363 80.7758 54.4534 80.9532 54.2784C81.1271 54.101 81.2193 53.8964 81.2193 53.6398C81.2098 53.3796 81.1164 53.1643 80.9414 52.9988L80.9426 52.9987ZM80.8599 54.2169C80.7061 54.3706 80.5192 54.4416 80.2921 54.4416C80.0675 54.4416 79.8807 54.3706 79.7245 54.2169C79.5708 54.0608 79.4879 53.8657 79.4879 53.6374C79.4879 53.4126 79.5589 53.2259 79.715 53.0698C79.8687 52.9161 80.0545 52.845 80.2921 52.845C80.5169 52.845 80.7038 52.9161 80.8599 53.0698C81.0135 53.2259 81.0963 53.4126 81.0963 53.6374C81.0963 53.8764 81.0254 54.0608 80.8599 54.2169ZM80.3962 53.6906C80.4884 53.6693 80.5618 53.6279 80.6126 53.5771C80.6647 53.5238 80.6837 53.4516 80.6837 53.3691C80.6837 53.2768 80.6541 53.2034 80.5915 53.1526C80.5205 53.0934 80.4058 53.0615 80.2605 53.0615H79.9316V54.2157H80.0973V53.7308H80.2001C80.2711 53.7308 80.3421 53.8017 80.4058 53.9366L80.5288 54.2145H80.7252L80.5715 53.9046C80.5182 53.7697 80.4567 53.7082 80.3942 53.688L80.3962 53.6906ZM80.2826 53.5866H80.1053V53.1964H80.2508C80.3537 53.1964 80.4258 53.2152 80.4673 53.2472C80.5086 53.2779 80.5181 53.3182 80.5181 53.3915C80.5181 53.5251 80.4353 53.5867 80.2816 53.5867L80.2826 53.5866ZM51.51 44.5949H51.6543V43.4394H52.0362V43.2951H51.128V43.4394H51.5101V44.5949H51.51ZM52.3851 43.7268C52.3851 43.6143 52.3851 43.5221 52.3769 43.4702C52.3863 43.5316 52.4076 43.5731 52.4171 43.6038L52.8606 44.5949H52.9316L53.3762 43.5943C53.3881 43.5636 53.3976 43.5233 53.4176 43.4702C53.4081 43.5731 53.4081 43.6557 53.4081 43.7185V44.5937H53.5619V43.2951H53.3762L52.9742 44.1916C52.9647 44.2236 52.9326 44.2861 52.9126 44.3572H52.9008C52.8925 44.3157 52.8713 44.2743 52.8417 44.2035L52.4396 43.2952H52.2315V44.5961H52.3769V43.728L52.3851 43.7268Z" fill="white"/>
<defs>
<linearGradient id="paint0_linear" x1="36.3127" y1="40.132" x2="39.532" y2="38.2297" gradientUnits="userSpaceOnUse">
<stop stop-color="#909CA9"/>
<stop offset="1" stop-color="#EDEDEE"/>
</linearGradient>
<linearGradient id="paint1_linear" x1="36.3864" y1="4.27" x2="38.9767" y2="4.27" gradientUnits="userSpaceOnUse">
<stop stop-color="#939FAB"/>
<stop offset="1" stop-color="#DCDEE1"/>
</linearGradient>
<radialGradient id="paint2_radial" cx="0" cy="0" r="1" gradientUnits="userSpaceOnUse" gradientTransform="translate(49.4571 16.15) rotate(-171.457) scale(3.33963 6.68091)">
<stop stop-color="#EE352C"/>
<stop offset="1" stop-color="#A91D22"/>
</radialGradient>
</defs>
</svg>
